<svg viewBox="0 0 1000 650" xmlns="http://www.w3.org/2000/svg" font-family="system-ui,-apple-system,'Segoe UI',sans-serif">

<rect width="1000" height="650" fill="#fafafa"/>

<defs>
<marker id="arr" viewBox="0 0 10 10" refX="9" refY="5" markerWidth="6" markerHeight="6" orient="auto-start-reverse">
<path d="M1 1L9 5L1 9" fill="none" stroke="context-stroke" stroke-width="1.5" stroke-linecap="round" stroke-linejoin="round"/>
</marker>
</defs>

<text x="500" y="22" text-anchor="middle" font-size="11" fill="#aaa" letter-spacing="3" font-weight="500">C4 CONTAINER — LITRADAR</text>

<rect x="25" y="35" width="718" height="572" rx="8" fill="#f4f6ff" stroke="#c0c8e8" stroke-width="1.5" stroke-dasharray="8 4"/>
<text x="43" y="54" font-size="10" fill="#b0bade">LitRadar  [System Boundary]</text>

<rect x="300" y="68" width="200" height="72" rx="6" fill="#1168BD" stroke="#0d52a8" stroke-width="1"/>
<text x="400" y="87" text-anchor="middle" font-size="10" fill="#93c2ef">[Web Application]</text>
<text x="400" y="108" text-anchor="middle" font-size="14" fill="#fff" font-weight="500">Streamlit UI</text>
<text x="400" y="128" text-anchor="middle" font-size="10" fill="#b8d9f5">Веб-интерфейс · streaming прогресса</text>

<line x1="393" y1="141" x2="393" y2="196" stroke="#64748B" stroke-width="1.5" marker-end="url(#arr)"/>
<line x1="407" y1="196" x2="407" y2="141" stroke="#64748B" stroke-width="1.5" marker-end="url(#arr)"/>

<rect x="85" y="198" width="580" height="72" rx="6" fill="#312E81" stroke="#23206b" stroke-width="1"/>
<text x="375" y="217" text-anchor="middle" font-size="10" fill="#a5b4fc">[Application]</text>
<text x="375" y="238" text-anchor="middle" font-size="14" fill="#fff" font-weight="500">Orchestrator</text>
<text x="375" y="256" text-anchor="middle" font-size="10" fill="#c7d2fe">LangGraph StateGraph · routing · guardrails · budget control</text>

<line x1="167" y1="270" x2="167" y2="334" stroke="#64748B" stroke-width="1.2" marker-start="url(#arr)" marker-end="url(#arr)"/>
<line x1="387" y1="270" x2="387" y2="334" stroke="#64748B" stroke-width="1.2" marker-start="url(#arr)" marker-end="url(#arr)"/>
<line x1="610" y1="270" x2="610" y2="334" stroke="#64748B" stroke-width="1.2" marker-start="url(#arr)" marker-end="url(#arr)"/>

<rect x="65" y="335" width="205" height="82" rx="6" fill="#6D28D9" stroke="#5b20b8" stroke-width="1"/>
<text x="167" y="354" text-anchor="middle" font-size="10" fill="#ddd6fe">[Application]</text>
<text x="167" y="374" text-anchor="middle" font-size="14" fill="#fff" font-weight="500">Agent Layer</text>
<text x="167" y="394" text-anchor="middle" font-size="10" fill="#ede9fe">Planner · Critic</text>
<text x="167" y="408" text-anchor="middle" font-size="10" fill="#ede9fe">Synthesis · Renderer</text>

<rect x="290" y="335" width="195" height="82" rx="6" fill="#0F766E" stroke="#0d6460" stroke-width="1"/>
<text x="387" y="354" text-anchor="middle" font-size="10" fill="#99f6e4">[Application]</text>
<text x="387" y="374" text-anchor="middle" font-size="14" fill="#fff" font-weight="500">Tool Layer</text>
<text x="387" y="394" text-anchor="middle" font-size="10" fill="#ccfbf1">Search Agent · Sanitizer</text>
<text x="387" y="408" text-anchor="middle" font-size="10" fill="#ccfbf1">Verifier</text>

<rect x="505" y="335" width="210" height="82" rx="6" fill="#0284C7" stroke="#026da0" stroke-width="1"/>
<text x="610" y="354" text-anchor="middle" font-size="10" fill="#bae6fd">[Application]</text>
<text x="610" y="374" text-anchor="middle" font-size="14" fill="#fff" font-weight="500">Retriever</text>
<text x="610" y="394" text-anchor="middle" font-size="10" fill="#e0f2fe">ChromaDB wrapper</text>
<text x="610" y="408" text-anchor="middle" font-size="10" fill="#e0f2fe">sentence-transformers</text>

<line x1="610" y1="417" x2="610" y2="462" stroke="#64748B" stroke-width="1.5" marker-start="url(#arr)" marker-end="url(#arr)"/>

<rect x="505" y="463" width="210" height="72" rx="6" fill="#0C4A6E" stroke="#083a57" stroke-width="1"/>
<line x1="505" y1="482" x2="715" y2="482" stroke="#083a57" stroke-width="0.8"/>
<text x="610" y="478" text-anchor="middle" font-size="10" fill="#7dd3fc">[Database]</text>
<text x="610" y="501" text-anchor="middle" font-size="14" fill="#fff" font-weight="500">ChromaDB</text>
<text x="610" y="522" text-anchor="middle" font-size="10" fill="#bae6fd">./chroma_db · на диске</text>

<path d="M 440 335 L 440 322 L 748 322 L 748 129 L 800 129" fill="none" stroke="#888" stroke-width="1.2" marker-start="url(#arr)" marker-end="url(#arr)"/>
<path d="M 460 335 L 460 308 L 756 308 L 756 224 L 800 224" fill="none" stroke="#888" stroke-width="1.2" marker-start="url(#arr)" marker-end="url(#arr)"/>
<path d="M 167 417 L 167 550 L 745 550 L 745 364 L 800 364" fill="none" stroke="#888" stroke-width="1.2" marker-start="url(#arr)" marker-end="url(#arr)"/>
<path d="M 665 233 L 770 233 L 770 469 L 800 469" fill="none" stroke="#888" stroke-width="1.2" marker-end="url(#arr)"/>

<rect x="800" y="95" width="175" height="68" rx="6" fill="#5c5f6b" stroke="#494c56" stroke-width="1"/>
<text x="887" y="114" text-anchor="middle" font-size="10" fill="#c0c2ca">[External System]</text>
<text x="887" y="135" text-anchor="middle" font-size="14" fill="#fff" font-weight="500">ArXiv API</text>
<text x="887" y="154" text-anchor="middle" font-size="10" fill="#9a9ca6">arxiv.org</text>

<rect x="800" y="190" width="175" height="68" rx="6" fill="#5c5f6b" stroke="#494c56" stroke-width="1"/>
<text x="887" y="209" text-anchor="middle" font-size="10" fill="#c0c2ca">[External System]</text>
<text x="887" y="228" text-anchor="middle" font-size="12" fill="#fff" font-weight="500">Semantic Scholar</text>
<text x="887" y="248" text-anchor="middle" font-size="10" fill="#9a9ca6">semanticscholar.org</text>

<rect x="800" y="330" width="175" height="68" rx="6" fill="#5c5f6b" stroke="#494c56" stroke-width="1"/>
<text x="887" y="349" text-anchor="middle" font-size="10" fill="#c0c2ca">[External System]</text>
<text x="887" y="370" text-anchor="middle" font-size="14" fill="#fff" font-weight="500">OpenRouter</text>
<text x="887" y="389" text-anchor="middle" font-size="10" fill="#9a9ca6">LLM API</text>

<rect x="800" y="435" width="175" height="68" rx="6" fill="#5c5f6b" stroke="#494c56" stroke-width="1"/>
<text x="887" y="454" text-anchor="middle" font-size="10" fill="#c0c2ca">[External System]</text>
<text x="887" y="475" text-anchor="middle" font-size="14" fill="#fff" font-weight="500">Langfuse</text>
<text x="887" y="494" text-anchor="middle" font-size="10" fill="#9a9ca6">Observability</text>

<text x="50" y="602" font-size="10" fill="#888">
  <tspan fill="#1168BD" font-weight="700">■</tspan><tspan> Frontend  </tspan>
  <tspan fill="#312E81" font-weight="700">■</tspan><tspan> Orchestrator  </tspan>
  <tspan fill="#6D28D9" font-weight="700">■</tspan><tspan> Agent Layer  </tspan>
  <tspan fill="#0F766E" font-weight="700">■</tspan><tspan> Tool Layer  </tspan>
  <tspan fill="#0284C7" font-weight="700">■</tspan><tspan> Retriever / RAG  </tspan>
  <tspan fill="#0C4A6E" font-weight="700">■</tspan><tspan> Storage  </tspan>
  <tspan fill="#5c5f6b" font-weight="700">■</tspan><tspan> External</tspan>
</text>

</svg>
