<svg viewBox="0 0 960 620" xmlns="http://www.w3.org/2000/svg" font-family="system-ui,-apple-system,'Segoe UI',sans-serif">

<rect width="960" height="620" fill="#fafafa"/>

<defs>
<marker id="arr" viewBox="0 0 10 10" refX="9" refY="5" markerWidth="6" markerHeight="6" orient="auto-start-reverse">
<path d="M1 1L9 5L1 9" fill="none" stroke="context-stroke" stroke-width="1.5" stroke-linecap="round" stroke-linejoin="round"/>
</marker>
</defs>

<text x="480" y="22" text-anchor="middle" font-size="11" fill="#aaa" letter-spacing="3" font-weight="500">C4 COMPONENT — ORCHESTRATOR</text>

<rect x="25" y="35" width="660" height="545" rx="8" fill="#f4f6ff" stroke="#c0c8e8" stroke-width="1.5" stroke-dasharray="8 4"/>
<text x="43" y="54" font-size="10" fill="#b0bade">Orchestrator  [Container Boundary]</text>

<rect x="55" y="75" width="165" height="78" rx="6" fill="#B45309" stroke="#92400E" stroke-width="1"/>
<text x="137" y="94" text-anchor="middle" font-size="10" fill="#fde68a">[Component]</text>
<text x="137" y="113" text-anchor="middle" font-size="13" fill="#fff" font-weight="500">Input Guard</text>
<text x="137" y="132" text-anchor="middle" font-size="10" fill="#fef3c7">тематика · ширина · безоп.</text>

<rect x="55" y="193" width="165" height="78" rx="6" fill="#0284C7" stroke="#0369A1" stroke-width="1"/>
<text x="137" y="212" text-anchor="middle" font-size="10" fill="#bae6fd">[Component]</text>
<text x="137" y="231" text-anchor="middle" font-size="13" fill="#fff" font-weight="500">KB Lookup</text>
<text x="137" y="250" text-anchor="middle" font-size="10" fill="#e0f2fe">retrieval из ChromaDB</text>

<rect x="55" y="420" width="165" height="78" rx="6" fill="#B45309" stroke="#92400E" stroke-width="1"/>
<text x="137" y="439" text-anchor="middle" font-size="10" fill="#fde68a">[Component]</text>
<text x="137" y="458" text-anchor="middle" font-size="13" fill="#fff" font-weight="500">Citation Guard</text>
<text x="137" y="477" text-anchor="middle" font-size="10" fill="#fef3c7">paper_id ∈ papers_accepted</text>

<rect x="255" y="75" width="185" height="420" rx="6" fill="#e8edf7" stroke="#99aacf" stroke-width="1.5" stroke-dasharray="5 3"/>
<text x="347" y="96" text-anchor="middle" font-size="10" fill="#5571a7">[Data Store]</text>
<text x="347" y="116" text-anchor="middle" font-size="13" fill="#2d3e6b" font-weight="500">AgentState</text>
<line x1="265" y1="126" x2="430" y2="126" stroke="#99aacf" stroke-width="0.8"/>
<text x="347" y="146" text-anchor="middle" font-size="10" fill="#4a5d8a">query · iteration</text>
<text x="347" y="168" text-anchor="middle" font-size="10" fill="#4a5d8a">max_iterations</text>
<text x="347" y="190" text-anchor="middle" font-size="10" fill="#4a5d8a">papers_from_kb</text>
<text x="347" y="212" text-anchor="middle" font-size="10" fill="#4a5d8a">papers_found</text>
<text x="347" y="234" text-anchor="middle" font-size="10" fill="#4a5d8a">papers_accepted</text>
<text x="347" y="270" text-anchor="middle" font-size="10" fill="#4a5d8a">synthesis_output</text>
<text x="347" y="306" text-anchor="middle" font-size="10" fill="#4a5d8a">verified_citations</text>
<text x="347" y="342" text-anchor="middle" font-size="10" fill="#4a5d8a">removed_citations</text>
<text x="347" y="378" text-anchor="middle" font-size="10" fill="#4a5d8a">session_budget_remaining</text>
<text x="347" y="414" text-anchor="middle" font-size="10" fill="#4a5d8a">has_injection_signal · error</text>

<rect x="470" y="75" width="165" height="78" rx="6" fill="#B45309" stroke="#92400E" stroke-width="1"/>
<text x="552" y="94" text-anchor="middle" font-size="10" fill="#fde68a">[Component]</text>
<text x="552" y="113" text-anchor="middle" font-size="13" fill="#fff" font-weight="500">Budget Guard</text>
<text x="552" y="132" text-anchor="middle" font-size="10" fill="#fef3c7">soft $0.08 · hard $0.15</text>

<rect x="470" y="193" width="165" height="78" rx="6" fill="#312E81" stroke="#23206b" stroke-width="1"/>
<text x="552" y="212" text-anchor="middle" font-size="10" fill="#a5b4fc">[Component]</text>
<text x="552" y="231" text-anchor="middle" font-size="13" fill="#fff" font-weight="500">Routing Functions</text>
<text x="552" y="250" text-anchor="middle" font-size="10" fill="#c7d2fe">4 conditional edges</text>

<rect x="470" y="308" width="165" height="78" rx="6" fill="#312E81" stroke="#23206b" stroke-width="1"/>
<text x="552" y="327" text-anchor="middle" font-size="10" fill="#a5b4fc">[Component]</text>
<text x="552" y="346" text-anchor="middle" font-size="13" fill="#fff" font-weight="500">Iteration Controller</text>
<text x="552" y="365" text-anchor="middle" font-size="10" fill="#c7d2fe">max 2 · stall detection</text>

<rect x="55" y="513" width="580" height="40" rx="6" fill="#1e293b" stroke="#0f172a" stroke-width="1"/>
<text x="345" y="537" text-anchor="middle" font-size="11" fill="#94a3b8" font-weight="500">LangGraph StateGraph — граф выполнения, маршрутизация нод, управление состоянием</text>

<line x1="220" y1="114" x2="254" y2="114" stroke="#64748B" stroke-width="1.5" marker-end="url(#arr)"/>
<line x1="220" y1="232" x2="254" y2="232" stroke="#64748B" stroke-width="1.5" marker-end="url(#arr)"/>
<line x1="440" y1="114" x2="469" y2="114" stroke="#64748B" stroke-width="1.5" marker-end="url(#arr)"/>
<line x1="440" y1="232" x2="469" y2="232" stroke="#64748B" stroke-width="1.5" marker-end="url(#arr)"/>
<line x1="440" y1="347" x2="469" y2="347" stroke="#64748B" stroke-width="1.5" marker-end="url(#arr)"/>
<line x1="255" y1="459" x2="221" y2="459" stroke="#64748B" stroke-width="1.5" marker-end="url(#arr)"/>
<line x1="547" y1="271" x2="547" y2="307" stroke="#64748B" stroke-width="1.5" marker-start="url(#arr)" marker-end="url(#arr)"/>

<line x1="635" y1="215" x2="720" y2="128" stroke="#888" stroke-width="1.2" marker-end="url(#arr)"/>
<line x1="635" y1="235" x2="720" y2="253" stroke="#888" stroke-width="1.2" marker-end="url(#arr)"/>
<line x1="635" y1="255" x2="720" y2="388" stroke="#888" stroke-width="1.2" marker-end="url(#arr)"/>

<rect x="720" y="90" width="185" height="75" rx="6" fill="#5c5f6b" stroke="#494c56" stroke-width="1"/>
<text x="812" y="109" text-anchor="middle" font-size="10" fill="#c0c2ca">[Container]</text>
<text x="812" y="128" text-anchor="middle" font-size="14" fill="#fff" font-weight="500">Retriever</text>
<text x="812" y="148" text-anchor="middle" font-size="10" fill="#9a9ca6">KB lookup · индексирование</text>

<rect x="720" y="215" width="185" height="75" rx="6" fill="#5c5f6b" stroke="#494c56" stroke-width="1"/>
<text x="812" y="234" text-anchor="middle" font-size="10" fill="#c0c2ca">[Container]</text>
<text x="812" y="253" text-anchor="middle" font-size="14" fill="#fff" font-weight="500">Agent Layer</text>
<text x="812" y="273" text-anchor="middle" font-size="10" fill="#9a9ca6">4 LLM-агента</text>

<rect x="720" y="350" width="185" height="75" rx="6" fill="#5c5f6b" stroke="#494c56" stroke-width="1"/>
<text x="812" y="369" text-anchor="middle" font-size="10" fill="#c0c2ca">[Container]</text>
<text x="812" y="388" text-anchor="middle" font-size="14" fill="#fff" font-weight="500">Tool Layer</text>
<text x="812" y="408" text-anchor="middle" font-size="10" fill="#9a9ca6">Search · Sanitize · Verifier</text>

<text x="55" y="584" font-size="10" fill="#888">
  <tspan fill="#B45309" font-weight="700">■</tspan><tspan> Guardrail  </tspan>
  <tspan fill="#0284C7" font-weight="700">■</tspan><tspan> Retrieval  </tspan>
  <tspan fill="#312E81" font-weight="700">■</tspan><tspan> Control logic  </tspan>
  <tspan fill="#5571a7" font-weight="700">■</tspan><tspan> Shared state  </tspan>
  <tspan fill="#1e293b" font-weight="700">■</tspan><tspan> Framework  </tspan>
  <tspan fill="#5c5f6b" font-weight="700">■</tspan><tspan> External containers</tspan>
</text>

</svg>
