<svg viewBox="0 0 900 950" xmlns="http://www.w3.org/2000/svg" font-family="system-ui,-apple-system,'Segoe UI',sans-serif">

<rect width="900" height="950" fill="#fafafa"/>

<defs>
<marker id="arr" viewBox="0 0 10 10" refX="9" refY="5" markerWidth="6" markerHeight="6" orient="auto-start-reverse">
<path d="M1 1L9 5L1 9" fill="none" stroke="context-stroke" stroke-width="1.5" stroke-linecap="round" stroke-linejoin="round"/>
</marker>
</defs>

<text x="450" y="22" text-anchor="middle" font-size="11" fill="#aaa" letter-spacing="3" font-weight="500">DATA FLOW — LITRADAR</text>

<text x="42" y="43" font-size="9" fill="#888">
  <tspan fill="#B45309" font-weight="700">■</tspan><tspan> Guardrail  </tspan>
  <tspan fill="#6D28D9" font-weight="700">■</tspan><tspan> LLM-агент  </tspan>
  <tspan fill="#0F766E" font-weight="700">■</tspan><tspan> Tool  </tspan>
  <tspan fill="#0284C7" font-weight="700">■</tspan><tspan> Retrieval  </tspan>
  <tspan fill="#0C4A6E" font-weight="700">■</tspan><tspan> Storage  </tspan>
  <tspan stroke="#888" stroke-dasharray="4 2" fill="none">---</tspan><tspan> Observability / logging</tspan>
</text>

<rect x="72" y="55" width="110" height="36" rx="18" fill="#475569" stroke="#334155" stroke-width="1"/>
<text x="127" y="73" text-anchor="middle" dominant-baseline="central" font-size="11" fill="#e2e8f0" font-weight="500">пользователь</text>

<rect x="40" y="120" width="175" height="44" rx="5" fill="#B45309" stroke="#92400E" stroke-width="1"/>
<text x="127" y="132" text-anchor="middle" font-size="9" fill="#fde68a">[Guardrail]</text>
<text x="127" y="145" text-anchor="middle" font-size="12" fill="#fff" font-weight="500">Input Guard</text>
<text x="127" y="157" text-anchor="middle" font-size="9" fill="#fef3c7">тематика · ширина · безоп.</text>

<rect x="40" y="203" width="175" height="44" rx="5" fill="#0284C7" stroke="#0369A1" stroke-width="1"/>
<text x="127" y="215" text-anchor="middle" font-size="9" fill="#bae6fd">[Retrieval]</text>
<text x="127" y="228" text-anchor="middle" font-size="12" fill="#fff" font-weight="500">KB Lookup</text>
<text x="127" y="240" text-anchor="middle" font-size="9" fill="#e0f2fe">ChromaDB retrieval</text>

<rect x="40" y="286" width="175" height="44" rx="5" fill="#6D28D9" stroke="#5b20b8" stroke-width="1"/>
<text x="127" y="298" text-anchor="middle" font-size="9" fill="#ddd6fe">[LLM Agent]</text>
<text x="127" y="311" text-anchor="middle" font-size="12" fill="#fff" font-weight="500">Planner</text>
<text x="127" y="323" text-anchor="middle" font-size="9" fill="#ede9fe">декомпозиция → subqueries</text>

<rect x="40" y="369" width="175" height="44" rx="5" fill="#0F766E" stroke="#0d6460" stroke-width="1"/>
<text x="127" y="381" text-anchor="middle" font-size="9" fill="#99f6e4">[Tool]</text>
<text x="127" y="394" text-anchor="middle" font-size="12" fill="#fff" font-weight="500">Search Agent</text>
<text x="127" y="406" text-anchor="middle" font-size="9" fill="#ccfbf1">ArXiv + Semantic Scholar</text>

<rect x="40" y="452" width="175" height="44" rx="5" fill="#B45309" stroke="#92400E" stroke-width="1"/>
<text x="127" y="464" text-anchor="middle" font-size="9" fill="#fde68a">[Guardrail]</text>
<text x="127" y="477" text-anchor="middle" font-size="12" fill="#fff" font-weight="500">Sanitization Layer</text>
<text x="127" y="489" text-anchor="middle" font-size="9" fill="#fef3c7">anti-injection</text>

<rect x="40" y="535" width="175" height="44" rx="5" fill="#6D28D9" stroke="#5b20b8" stroke-width="1"/>
<text x="127" y="547" text-anchor="middle" font-size="9" fill="#ddd6fe">[LLM Agent]</text>
<text x="127" y="560" text-anchor="middle" font-size="12" fill="#fff" font-weight="500">Critic Agent</text>
<text x="127" y="572" text-anchor="middle" font-size="9" fill="#ede9fe">батч ~10 · → papers_accepted</text>

<rect x="40" y="645" width="175" height="44" rx="5" fill="#6D28D9" stroke="#5b20b8" stroke-width="1"/>
<text x="127" y="657" text-anchor="middle" font-size="9" fill="#ddd6fe">[LLM Agent]</text>
<text x="127" y="670" text-anchor="middle" font-size="12" fill="#fff" font-weight="500">Synthesis Agent</text>
<text x="127" y="682" text-anchor="middle" font-size="9" fill="#ede9fe">RAG + секции + open_q.</text>

<rect x="40" y="738" width="175" height="44" rx="5" fill="#B45309" stroke="#92400E" stroke-width="1"/>
<text x="127" y="750" text-anchor="middle" font-size="9" fill="#fde68a">[Guardrail + Tool]</text>
<text x="127" y="763" text-anchor="middle" font-size="12" fill="#fff" font-weight="500">Cit.Guard + Verifier</text>
<text x="127" y="775" text-anchor="middle" font-size="9" fill="#fef3c7">→ verified_citations</text>

<rect x="40" y="821" width="175" height="44" rx="5" fill="#6D28D9" stroke="#5b20b8" stroke-width="1"/>
<text x="127" y="833" text-anchor="middle" font-size="9" fill="#ddd6fe">[LLM Agent]</text>
<text x="127" y="846" text-anchor="middle" font-size="12" fill="#fff" font-weight="500">Renderer Agent</text>
<text x="127" y="858" text-anchor="middle" font-size="9" fill="#ede9fe">→ Markdown обзор</text>

<rect x="72" y="903" width="110" height="36" rx="18" fill="#15803D" stroke="#0f5c2e" stroke-width="1"/>
<text x="127" y="921" text-anchor="middle" dominant-baseline="central" font-size="11" fill="#dcfce7" font-weight="500">UI Output</text>

<line x1="127" y1="91" x2="127" y2="119" stroke="#94a3b8" stroke-width="1.5" marker-end="url(#arr)"/>
<line x1="127" y1="164" x2="127" y2="202" stroke="#94a3b8" stroke-width="1.5" marker-end="url(#arr)"/>
<line x1="127" y1="247" x2="127" y2="285" stroke="#94a3b8" stroke-width="1.5" marker-end="url(#arr)"/>
<line x1="127" y1="330" x2="127" y2="368" stroke="#94a3b8" stroke-width="1.5" marker-end="url(#arr)"/>
<line x1="127" y1="413" x2="127" y2="451" stroke="#94a3b8" stroke-width="1.5" marker-end="url(#arr)"/>
<line x1="127" y1="496" x2="127" y2="534" stroke="#94a3b8" stroke-width="1.5" marker-end="url(#arr)"/>
<line x1="127" y1="579" x2="127" y2="644" stroke="#94a3b8" stroke-width="1.5" marker-end="url(#arr)"/>
<line x1="127" y1="689" x2="127" y2="737" stroke="#94a3b8" stroke-width="1.5" marker-end="url(#arr)"/>
<line x1="127" y1="782" x2="127" y2="820" stroke="#94a3b8" stroke-width="1.5" marker-end="url(#arr)"/>
<line x1="127" y1="865" x2="127" y2="902" stroke="#94a3b8" stroke-width="1.5" marker-end="url(#arr)"/>

<text x="222" y="110" font-size="9" fill="#64748b" font-style="italic">query</text>
<text x="222" y="185" font-size="9" fill="#64748b" font-style="italic">query + papers_from_kb</text>
<text x="222" y="268" font-size="9" fill="#64748b" font-style="italic">subqueries</text>
<text x="222" y="350" font-size="9" fill="#64748b" font-style="italic">raw papers_found</text>
<text x="222" y="433" font-size="9" fill="#64748b" font-style="italic">clean papers_found</text>
<text x="222" y="516" font-size="9" fill="#64748b" font-style="italic">papers_accepted</text>
<text x="222" y="613" font-size="9" fill="#64748b" font-style="italic">papers_accepted</text>
<text x="222" y="714" font-size="9" fill="#64748b" font-style="italic">synthesis_output</text>
<text x="222" y="800" font-size="9" fill="#64748b" font-style="italic">verified citations + sections</text>
<text x="222" y="882" font-size="9" fill="#64748b" font-style="italic">final_review (Markdown)</text>

<rect x="375" y="330" width="185" height="275" rx="8" fill="#0C4A6E" stroke="#083a57" stroke-width="1.5"/>
<line x1="375" y1="356" x2="560" y2="356" stroke="#083a57" stroke-width="1"/>
<line x1="375" y1="450" x2="560" y2="450" stroke="#083a57" stroke-width="1"/>
<line x1="375" y1="540" x2="560" y2="540" stroke="#083a57" stroke-width="1"/>
<text x="467" y="348" text-anchor="middle" font-size="10" fill="#7dd3fc" font-weight="500">[Database]  ChromaDB</text>
<text x="467" y="378" text-anchor="middle" font-size="9" fill="#bae6fd" font-weight="500">накопленная KB</text>
<text x="467" y="395" text-anchor="middle" font-size="9" fill="#7dd3fc">статьи прошлых сессий</text>
<text x="467" y="412" text-anchor="middle" font-size="9" fill="#7dd3fc">персистентная · ./chroma_db</text>
<text x="467" y="472" text-anchor="middle" font-size="9" fill="#bae6fd" font-weight="500">текущая сессия</text>
<text x="467" y="490" text-anchor="middle" font-size="9" fill="#7dd3fc">papers_accepted (WRITE)</text>
<text x="467" y="507" text-anchor="middle" font-size="9" fill="#7dd3fc">при завершении Critic</text>
<text x="467" y="562" text-anchor="middle" font-size="9" fill="#bae6fd" font-weight="500">векторный индекс</text>
<text x="467" y="580" text-anchor="middle" font-size="9" fill="#7dd3fc">sentence-transformers</text>
<text x="467" y="597" text-anchor="middle" font-size="9" fill="#7dd3fc">bge-small-en-v1.5 · 768 dim</text>

<path d="M 375 365 L 240 365 L 240 225 L 215 225" fill="none" stroke="#0284C7" stroke-width="1.5" marker-end="url(#arr)"/>
<text x="295" y="358" text-anchor="middle" font-size="9" fill="#0284C7" font-weight="500">papers_from_kb</text>

<path d="M 215 557 L 340 557 L 340 490 L 375 490" fill="none" stroke="#0284C7" stroke-width="1.5" marker-end="url(#arr)"/>
<text x="358" y="484" text-anchor="middle" font-size="9" fill="#0284C7" font-weight="500">index(papers_accepted)</text>

<path d="M 375 605 L 240 605 L 240 667 L 215 667" fill="none" stroke="#0284C7" stroke-width="1.5" marker-end="url(#arr)"/>
<text x="300" y="596" text-anchor="middle" font-size="9" fill="#0284C7" font-weight="500">top-k abstracts (RAG)</text>

<path d="M 215 383 L 355 383 L 355 270 L 640 270" fill="none" stroke="#0F766E" stroke-width="1.5" marker-start="url(#arr)" marker-end="url(#arr)"/>
<text x="500" y="262" text-anchor="middle" font-size="9" fill="#0F766E" font-weight="500">subqueries  /  papers (metadata+abstract)</text>

<path d="M 215 471 L 355 471 L 355 145 L 640 145" fill="none" stroke="#B45309" stroke-width="1.3" stroke-dasharray="5 3" marker-end="url(#arr)"/>
<text x="500" y="137" text-anchor="middle" font-size="9" fill="#B45309" font-weight="500">injection_signal → security.jsonl</text>

<path d="M 215 757 L 370 757 L 370 168 L 640 168" fill="none" stroke="#B45309" stroke-width="1.3" stroke-dasharray="5 3" marker-end="url(#arr)"/>
<text x="510" y="760" text-anchor="middle" font-size="9" fill="#B45309" font-weight="500">removed citations, errors → warnings/errors.jsonl</text>

<line x1="215" y1="667" x2="640" y2="667" stroke="#888" stroke-width="1.2" stroke-dasharray="5 3" marker-end="url(#arr)"/>
<text x="430" y="659" text-anchor="middle" font-size="9" fill="#64748b" font-style="italic">traces + tokens (все LLM-вызовы)</text>

<rect x="640" y="90" width="210" height="110" rx="6" fill="#422006" stroke="#311804" stroke-width="1"/>
<line x1="640" y1="115" x2="850" y2="115" stroke="#311804" stroke-width="0.8"/>
<text x="745" y="107" text-anchor="middle" font-size="10" fill="#fed7aa">[Log Files]  Local Logs</text>
<text x="745" y="130" text-anchor="middle" font-size="9" fill="#fdba74" font-weight="500">security.jsonl</text>
<text x="745" y="144" text-anchor="middle" font-size="9" fill="#d97706">injection events · 180 дней</text>
<text x="745" y="159" text-anchor="middle" font-size="9" fill="#fdba74" font-weight="500">warnings.jsonl</text>
<text x="745" y="173" text-anchor="middle" font-size="9" fill="#d97706">removed citations · budget · iter limit · 90 дней</text>
<text x="745" y="188" text-anchor="middle" font-size="9" fill="#fdba74" font-weight="500">errors.jsonl</text>
<text x="745" y="195" text-anchor="middle" font-size="9" fill="#d97706">API failures · parse errors · 90 дней</text>

<rect x="640" y="225" width="200" height="70" rx="6" fill="#5c5f6b" stroke="#494c56" stroke-width="1"/>
<text x="740" y="244" text-anchor="middle" font-size="10" fill="#c0c2ca">[External System]</text>
<text x="740" y="262" text-anchor="middle" font-size="12" fill="#fff" font-weight="500">ArXiv + Semantic Scholar</text>
<text x="740" y="282" text-anchor="middle" font-size="9" fill="#9a9ca6">публичные API · без OAuth</text>

<rect x="640" y="655" width="200" height="140" rx="6" fill="#1e293b" stroke="#0f172a" stroke-width="1.5"/>
<line x1="640" y1="680" x2="840" y2="680" stroke="#0f172a" stroke-width="0.8"/>
<text x="740" y="672" text-anchor="middle" font-size="10" fill="#94a3b8">[Observability]  Langfuse</text>
<text x="740" y="700" text-anchor="middle" font-size="10" fill="#cbd5e1" font-weight="500">LLM traces</text>
<text x="740" y="717" text-anchor="middle" font-size="9" fill="#94a3b8">Planner · Critic · Synthesis · Renderer</text>
<text x="740" y="735" text-anchor="middle" font-size="10" fill="#cbd5e1" font-weight="500">метрики</text>
<text x="740" y="752" text-anchor="middle" font-size="9" fill="#94a3b8">токены · latency · budget · citations</text>
<text x="740" y="780" text-anchor="middle" font-size="9" fill="#64748b" font-style="italic">WARNING/ERROR → logs/</text>

</svg>
